<svg width="794" height="435" viewBox="0 0 794 435" fill="none" xmlns="http://www.w3.org/2000/svg">
<path d="M793.999 93.8452C793.999 91.637 791.842 89.4289 790.763 86.1167C790.763 83.9086 791.842 80.5964 790.763 78.3883C789.684 76.1802 789.684 75.0761 787.527 72.868C784.29 70.6599 778.896 69.5558 774.581 69.5558C767.029 61.8274 750.847 61.8274 741.138 56.3071C740.059 55.203 738.98 54.099 740.059 52.9949C741.138 50.7868 741.138 46.3706 738.98 44.1624C737.902 41.9543 735.744 40.8502 732.508 38.6421C731.429 37.5381 729.271 36.434 726.035 35.3299C721.72 33.1218 717.404 32.0178 712.01 30.9137C704.459 29.8096 695.828 27.6015 688.277 26.4975C685.04 11.0406 667.779 12.1447 660.228 0C655.912 3.31218 653.755 13.2487 658.07 18.769C652.676 16.5609 647.282 14.3528 640.809 13.2487C628.942 12.1447 614.918 17.665 605.209 15.4569C600.893 14.3528 597.657 14.3528 593.342 11.0406C598.736 27.6015 620.312 19.8731 630.021 28.7056C619.233 28.7056 606.287 35.3299 597.657 32.0178C594.421 30.9137 592.263 28.7056 590.105 26.4975C589.027 30.9137 592.263 36.434 594.421 37.5381C586.869 36.434 582.554 34.2259 575.002 34.2259C560.978 36.434 549.111 46.3706 536.165 45.2665C531.85 45.2665 529.692 43.0584 525.377 41.9543C526.456 44.1624 528.614 46.3706 530.771 48.5787C544.796 60.7233 569.608 40.8502 585.79 54.099C573.923 54.099 565.293 61.8274 555.584 65.1396C543.717 69.5558 530.771 69.5558 519.983 65.1396C514.589 62.9315 512.431 59.6193 509.195 54.099C507.037 70.6599 516.747 81.7005 530.771 85.0127C522.141 87.2208 515.668 89.4289 507.037 90.533C497.328 91.637 489.777 87.2208 482.225 85.0127C474.673 82.8046 464.964 81.7005 457.412 82.8046C454.176 82.8046 442.309 87.2208 441.23 90.533C443.388 90.533 445.546 89.4289 446.624 89.4289C462.806 86.1167 470.358 100.47 482.225 102.678C478.989 104.886 474.673 104.886 470.358 105.99C458.491 108.198 444.467 110.406 428.285 109.302C407.787 108.198 389.448 100.47 371.108 93.8452C360.32 89.4289 343.059 83.9086 333.35 82.8046C316.089 80.5964 293.434 81.7005 277.252 87.2208C258.912 96.0533 244.888 103.782 231.942 120.343C229.785 122.551 224.391 131.383 224.391 132.487C215.76 138.008 209.287 138.008 200.657 136.904C198.499 136.904 180.16 131.383 172.608 126.967C167.214 123.655 162.899 121.447 158.584 118.134C152.111 113.718 147.796 110.406 139.165 105.99C137.007 104.886 131.613 102.678 129.456 102.678C114.353 99.3655 98.1705 98.2614 87.3825 103.782C85.2249 105.99 83.0673 105.99 78.752 108.198C69.0428 112.614 60.4124 118.134 49.6243 121.447C39.9151 124.759 29.127 123.655 20.4966 117.03C14.0238 112.614 9.70854 98.2614 14.0238 90.533C15.1026 89.4289 17.2602 87.2208 19.4178 86.1167C16.1814 85.0127 10.7873 87.2208 8.62974 89.4289C3.23572 94.9492 -1.0795 104.886 -0.000696584 114.822C1.07811 135.799 23.733 151.256 46.3879 152.36C71.2004 153.464 91.6977 141.32 116.51 142.424C101.407 149.048 89.5401 160.089 67.964 160.089C66.8852 160.089 61.4912 160.089 58.2547 160.089C65.8064 164.505 76.5944 164.505 84.1461 164.505C97.0917 163.401 107.88 154.569 119.747 151.256C129.456 149.048 139.165 149.048 149.953 151.256C139.165 151.256 132.692 153.464 125.141 156.777C119.747 158.985 111.116 164.505 101.407 166.713C110.037 168.921 117.589 163.401 124.062 161.193C132.692 157.881 143.48 155.673 156.426 157.881C160.741 158.985 163.978 158.985 168.293 160.089C186.632 161.193 203.893 157.881 217.918 151.256C212.524 167.817 215.76 188.794 221.154 202.043C225.469 211.98 234.1 225.228 240.573 232.957C248.124 241.789 264.306 250.622 262.149 268.287C261.07 278.223 256.755 289.264 251.361 294.784C250.282 295.888 245.967 299.2 243.809 300.305C233.021 306.929 230.863 320.178 239.494 330.114C241.652 331.218 242.73 332.322 243.809 333.426C245.967 335.634 261.07 348.883 264.306 352.195C272.937 361.028 281.567 370.964 290.198 379.797C294.513 384.213 302.065 388.629 304.222 393.046C305.301 395.254 305.301 397.462 306.38 399.67C308.537 402.982 312.853 406.294 316.089 406.294C318.247 406.294 320.404 404.086 322.562 404.086C327.956 404.086 330.113 409.607 330.113 414.023C330.113 415.127 329.035 417.335 329.035 418.439C329.035 422.855 331.192 427.272 334.429 427.272C341.98 430.584 348.453 427.272 354.926 427.272C361.399 427.272 368.95 430.584 372.187 426.167C368.95 415.127 364.635 402.982 353.847 399.67C349.532 395.254 346.296 390.837 341.98 387.525C337.665 384.213 331.192 382.005 325.798 378.693C321.483 375.381 315.01 372.068 310.695 367.652C307.459 364.34 303.143 361.028 298.828 355.508C294.513 348.883 290.198 344.467 286.961 337.843C283.725 331.218 278.331 324.594 279.41 317.969C280.488 311.345 283.725 308.033 288.04 304.721C298.828 293.68 316.089 288.16 325.798 276.015C329.035 280.431 334.429 283.744 337.665 288.16C344.138 294.784 353.847 300.305 357.084 310.241C351.69 316.865 352.768 327.906 361.399 333.426C368.95 336.739 377.581 333.426 386.211 335.634C390.527 336.739 396.999 336.739 401.315 337.843C407.787 340.051 413.181 341.155 418.575 343.363C422.891 344.467 427.206 346.675 431.521 347.779C436.915 349.987 442.309 353.299 447.703 357.716C446.624 362.132 444.467 365.444 442.309 369.86C441.23 372.068 436.915 379.797 434.758 379.797C433.679 379.797 431.521 379.797 430.442 379.797C426.127 380.901 420.733 383.109 420.733 387.525C420.733 393.046 418.575 400.774 414.26 401.878C409.945 402.982 406.709 397.462 402.393 397.462C399.157 397.462 394.842 400.774 393.763 402.982C391.605 406.294 389.448 410.711 387.29 415.127C384.054 419.543 381.896 422.855 379.738 427.272C381.896 431.688 386.211 430.584 389.448 430.584C392.684 430.584 398.078 430.584 401.315 429.48C430.442 423.959 446.624 395.254 464.964 378.693C468.2 380.901 472.516 380.901 477.91 380.901C478.988 380.901 480.067 384.213 476.831 391.942C476.831 400.774 495.171 401.878 500.565 404.086C502.722 405.19 507.037 407.398 509.195 407.398C510.274 402.982 509.195 397.462 508.116 391.942C505.959 384.213 501.643 378.693 498.407 373.173C493.013 364.34 485.461 357.716 483.304 355.508C491.934 341.155 505.959 332.322 516.747 321.282C519.983 316.865 523.219 312.449 526.456 309.137C531.85 303.617 540.48 299.2 546.953 294.784C551.268 298.096 557.741 303.617 563.135 306.929C570.687 311.345 579.317 315.761 581.475 323.49C582.554 326.802 581.475 329.01 582.554 331.218C583.633 334.53 584.711 336.739 585.79 338.947C586.869 343.363 585.79 345.571 585.79 347.779C579.317 356.612 571.766 363.236 564.214 369.86C560.978 373.173 556.662 378.693 552.347 378.693C550.19 378.693 546.953 378.693 544.796 378.693C541.559 379.797 538.323 382.005 537.244 385.317C536.165 389.733 540.48 397.462 532.929 399.67C527.535 397.462 522.141 394.15 517.825 398.566C512.431 402.982 511.353 412.919 509.195 421.751C508.116 427.272 505.959 437.208 509.195 437.208C513.51 437.208 517.825 435 522.141 432.792C526.456 430.584 531.85 427.272 536.165 423.959C540.48 420.647 543.717 416.231 548.032 414.023C551.268 411.815 555.584 410.711 557.741 409.607C562.056 406.294 566.372 399.67 569.608 395.254C570.687 393.046 576.081 384.213 577.16 383.109C578.239 380.901 579.317 380.901 581.475 378.693C585.79 373.173 604.13 352.195 611.681 345.571C614.918 343.363 618.154 336.739 619.233 334.53C621.391 326.802 618.154 320.178 613.839 315.761C611.681 313.553 608.445 310.241 606.287 308.033C605.209 306.929 603.051 302.513 601.972 301.409C600.893 299.2 596.578 290.368 595.499 287.056C592.263 273.807 587.948 266.079 584.711 252.83C611.681 231.853 614.918 204.251 611.681 183.274C620.312 167.817 626.785 152.36 637.573 139.112C646.203 131.383 652.676 122.551 663.464 118.134C667.779 114.822 673.173 113.718 678.567 110.406C687.198 117.03 700.143 117.03 712.01 114.822C716.325 113.718 730.35 108.198 732.508 107.094C738.98 104.886 747.611 104.886 753.005 109.302C754.084 112.614 755.162 115.926 757.32 118.134C761.635 121.447 770.266 121.447 775.66 119.239C778.896 118.135 781.054 114.822 783.211 113.718C787.527 107.094 787.527 104.886 786.448 103.782C790.763 102.678 795.078 99.3655 793.999 93.8452ZM490.855 266.079C488.698 270.495 487.619 274.911 485.461 278.223C483.304 280.431 480.067 281.535 477.91 282.64C474.673 285.952 472.516 290.368 471.437 294.784C470.358 298.096 470.358 302.513 470.358 306.929C469.279 314.657 464.964 321.282 461.728 329.01C453.097 324.594 445.546 320.178 435.836 317.969C422.891 314.657 411.024 311.345 399.157 306.929C394.842 296.992 395.921 289.264 398.078 278.223C400.236 264.975 401.315 246.206 393.763 234.061V232.957C409.945 236.269 423.969 243.997 439.073 249.518C446.624 251.726 452.018 253.934 461.728 255.038C474.673 256.142 485.461 255.038 498.407 253.934C495.171 258.35 493.013 262.766 490.855 266.079Z" fill="#929292"/>
</svg>
