<svg width="716" height="411" viewBox="0 0 716 411" fill="none" xmlns="http://www.w3.org/2000/svg">
<path d="M712.231 154.143C712.231 151.289 714.115 150.337 715.057 147.483C716.942 136.065 708.463 137.016 702.81 134.162C700.926 133.21 699.042 129.404 696.215 127.501C691.505 123.695 681.142 120.841 680.199 113.229C680.199 110.374 681.142 108.471 680.199 105.617C679.257 101.811 670.778 85.6351 659.473 77.0716C656.647 74.2171 651.936 72.3141 649.11 70.4111C652.878 68.5081 657.589 69.4596 662.299 70.4111C659.473 64.7021 652.878 62.7991 648.168 59.9446C650.052 58.0416 654.763 59.9446 656.647 58.0416C646.284 51.3811 638.747 51.3811 634.036 56.1386C628.384 48.5266 620.847 44.7206 613.31 40.9145C611.426 39.963 600.12 35.2055 592.584 29.4965C593.526 34.254 592.584 38.06 593.526 41.866C595.41 51.3811 602.005 57.0901 606.715 60.8961C601.063 58.0416 595.41 54.2356 590.699 50.4296C587.873 44.7206 584.105 38.06 580.336 31.3995C575.626 24.739 570.915 18.0785 566.205 15.224C561.494 12.3695 558.668 12.3695 557.726 12.3695C557.726 12.3695 561.494 12.3695 565.263 17.127C569.031 20.933 572.799 27.5935 575.626 35.2055C576.568 37.1085 576.568 38.06 577.51 39.963C574.684 37.1085 571.857 35.2055 569.031 33.3025C558.668 25.6905 542.652 17.127 521.926 22.836C547.363 22.836 554.899 39.963 568.089 49.4781C558.668 40.9145 549.247 35.2055 536.057 34.254C527.578 33.3025 493.663 33.3025 492.72 11.418C488.952 28.545 503.084 39.963 508.736 43.769C515.331 49.4781 520.041 49.4781 523.81 52.3326C520.041 50.4296 505.91 44.7206 503.084 42.8175C497.431 39.0115 490.836 37.1085 485.184 34.254C479.531 31.3995 473.878 27.5935 471.052 22.836C467.284 19.03 469.168 14.2725 469.168 14.2725C469.168 14.2725 467.284 18.0785 470.11 23.7875C472.936 29.4965 477.647 34.254 483.299 39.0115C487.068 41.866 490.836 44.7206 494.605 47.5751C484.241 47.5751 475.763 45.6721 467.284 40.9145C461.631 38.06 452.21 30.448 447.499 22.836C447.499 27.5935 450.326 32.351 453.152 35.2055C455.978 39.0115 458.805 41.866 462.573 44.7205C464.457 46.6236 466.341 47.5751 468.226 49.4781C466.341 49.4781 465.399 48.5266 463.515 48.5266C457.863 47.5751 451.268 45.6721 447.499 42.8175C443.731 39.963 442.789 36.157 442.789 36.157C442.789 36.157 441.847 40.9145 444.673 45.6721C447.499 50.4296 452.21 55.1871 456.92 58.9931C452.21 57.0901 446.557 54.2356 440.905 51.3811C433.368 47.5751 424.889 44.7206 416.41 43.769C410.757 42.8175 398.51 42.8176 398.51 45.6721C412.641 46.6236 421.12 51.3811 427.715 55.1871C435.252 58.9931 441.847 63.7506 447.499 68.5081C439.963 63.7506 423.005 59.9446 414.526 68.5081C423.947 67.5566 431.484 74.2171 438.078 79.9261C428.657 81.8291 418.294 89.4411 396.626 92.2956C382.494 94.1986 356.115 83.7321 353.289 82.7806C335.389 77.0716 318.431 69.4596 298.647 64.7021C269.441 58.9931 242.12 72.3141 224.22 90.3926C217.626 91.3441 211.973 90.3926 206.32 89.4411C197.841 87.5381 191.247 83.7321 184.652 78.9746C175.231 71.3626 165.81 64.7021 154.505 58.0416C144.141 52.3326 130.952 47.5751 115.878 47.5751C109.284 47.5751 102.689 47.5751 94.2098 47.5751C89.4993 47.5751 84.7888 46.6236 81.0204 45.6721C66.8888 42.8176 43.3361 29.4965 41.4519 19.03C41.4519 26.642 44.2782 30.448 47.1045 34.254C52.7572 41.866 63.1203 47.5751 70.6572 51.3811C58.4098 54.2356 45.2203 50.4296 33.9151 45.6721C23.5519 40.9145 15.073 35.2055 10.3624 28.545C6.59401 23.7875 1.88349 16.1755 3.7677 6.66051C4.7098 2.8545 6.59401 0.951501 6.59401 0C3.7677 0 1.88349 4.75751 0.941381 7.61201C-1.88494 20.933 1.88349 31.3995 5.65191 39.0115C10.3624 48.5266 16.9572 54.2356 24.494 59.9446C35.7993 66.6051 48.0467 71.3626 61.2361 74.2171C54.6414 77.0716 49.9309 84.6836 30.1467 75.1686C31.0888 77.0716 32.0309 78.9746 33.9151 79.9261C39.5677 85.6351 56.5256 90.3926 65.9467 91.3441C65.0046 92.2956 59.3519 96.1016 47.1045 97.0531C67.8309 103.714 94.2098 95.1501 100.805 94.1986C86.673 101.811 71.5993 119.889 74.4256 123.695C85.7309 106.568 125.299 93.2471 144.141 99.9076C137.547 106.568 127.184 111.326 117.762 113.229C114.936 114.18 111.168 113.229 109.284 116.083C116.82 117.035 127.184 117.986 133.778 117.986C139.431 117.986 142.257 117.986 150.736 115.132C159.215 112.277 170.52 105.617 177.115 103.714C192.189 100.859 203.494 107.52 216.684 108.471C208.205 119.889 202.552 148.434 200.668 156.998C198.784 167.464 195.957 181.737 192.189 190.3C178.057 226.457 155.447 232.166 152.62 231.215C150.736 231.215 148.852 227.409 146.968 227.409C141.315 226.457 134.72 235.972 132.836 240.73C129.068 247.39 127.184 255.002 123.415 259.76C118.705 264.517 113.994 266.42 108.341 270.226C104.573 266.42 95.1519 267.372 93.2677 273.081C92.3256 274.984 93.2677 277.838 92.3256 280.693C91.3835 283.547 88.5572 286.402 86.673 285.45C83.8467 285.45 82.9046 277.838 80.0782 275.935C78.194 274.032 74.4256 274.032 71.5993 274.032C66.8888 274.984 38.6256 294.965 39.5677 303.529C46.1624 312.092 57.4677 308.286 67.8309 308.286C71.5993 308.286 76.3098 311.141 80.0782 311.141C89.4993 311.141 97.9783 305.432 104.573 300.674C108.341 297.82 111.168 293.062 114.936 290.208C118.705 287.353 122.473 284.499 126.241 282.596C130.01 279.741 133.778 277.838 136.605 275.935C141.315 273.081 146.026 274.032 150.736 272.129C154.505 270.226 159.215 267.372 162.984 265.469C166.752 263.566 171.462 261.663 175.231 258.808C178.999 256.905 183.71 255.002 188.42 253.099C191.247 251.196 195.957 248.342 198.784 245.487C208.205 236.924 218.568 228.36 227.047 219.797C226.105 224.554 224.22 227.409 222.336 230.263C220.452 233.118 219.51 236.924 216.684 239.778C213.857 242.633 208.205 243.584 205.378 247.39C199.726 253.099 200.668 262.614 198.784 274.032C197.841 281.644 191.247 294.014 186.536 299.723C184.652 301.626 179.941 306.383 178.057 307.335C176.173 308.286 174.289 307.335 172.405 307.335C168.636 308.286 164.868 313.044 163.926 316.85C162.984 319.704 164.868 322.559 162.984 324.462C159.215 325.413 156.389 323.51 154.505 320.656C155.447 309.238 144.141 313.044 140.373 316.85C136.605 319.704 110.226 336.831 116.82 340.637C121.531 341.589 128.126 343.492 133.778 344.443C137.547 345.395 142.257 344.443 146.026 344.443C151.678 345.395 156.389 347.298 162.041 346.346C167.694 345.395 176.173 344.443 182.768 339.686C184.652 337.783 188.42 333.977 190.305 332.074C192.189 329.219 194.073 326.365 195.957 322.559C209.147 312.092 215.741 292.111 227.047 277.838C228.931 275.935 231.757 273.081 235.526 270.226C245.889 261.663 256.252 255.954 268.499 250.245C276.978 246.439 285.457 242.633 292.994 236.924C308.068 227.409 315.605 219.797 323.141 209.33C325.968 205.524 329.736 200.767 332.562 199.815C348.578 192.203 383.436 213.136 393.799 216.942C414.526 225.506 441.847 236.924 473.878 226.457C492.72 255.002 525.694 264.517 546.42 291.159C553.957 299.723 555.842 309.238 567.147 313.044C575.626 315.898 583.163 323.51 589.757 329.219C591.641 331.122 592.584 332.074 594.468 333.977C596.352 335.88 598.236 337.783 600.12 338.734C602.005 340.637 604.831 344.443 605.773 348.249C605.773 350.152 605.773 352.055 605.773 353.007C605.773 354.91 606.715 357.764 609.542 358.716C618.963 357.764 619.905 371.085 611.426 372.037C605.773 372.988 621.789 408.194 626.499 410.097C629.326 406.291 630.268 402.485 632.152 397.727C633.094 393.921 634.978 388.212 635.92 383.455C636.863 376.794 633.094 372.988 632.152 367.279C632.152 364.425 633.094 362.522 634.036 359.667C634.978 348.249 628.384 342.54 625.557 335.88C631.21 331.122 630.268 322.559 634.978 314.947C636.863 312.092 639.689 310.189 641.573 308.286C646.284 303.529 650.052 293.062 647.226 282.596C645.342 274.032 639.689 267.372 634.036 260.711C632.152 257.857 621.789 243.584 619.905 239.778C615.194 231.215 611.426 222.651 604.831 216.942C598.236 212.185 590.699 213.136 582.22 212.185C574.684 211.233 568.089 206.476 562.436 203.621C555.842 199.815 550.189 196.009 543.594 194.106C548.305 186.494 552.073 171.27 546.42 161.755C558.668 149.386 577.51 136.065 597.294 134.162C602.005 133.21 606.715 135.113 609.542 136.065C613.31 145.58 618.02 153.192 626.499 155.095C634.036 156.998 641.573 153.192 650.052 153.192C657.589 154.143 666.068 156.998 669.836 161.755C671.72 164.61 672.663 169.367 675.489 171.27C678.315 173.173 683.968 174.125 686.794 173.173C691.505 172.222 694.331 168.416 697.157 166.513C701.868 167.464 714.115 169.367 715.057 161.755C715.999 161.755 712.231 157.949 712.231 154.143ZM574.684 240.73C579.394 240.73 584.105 242.633 587.873 243.584C592.584 245.487 597.294 247.39 602.947 249.293C605.773 253.099 608.599 256.905 610.484 259.76C614.252 264.517 617.078 271.178 620.847 276.887C619.905 279.741 618.02 280.693 618.02 282.596C617.078 289.256 623.673 290.208 621.789 297.82C618.02 299.723 616.136 297.82 613.31 299.723C607.657 303.529 606.715 313.995 608.599 322.559C607.657 322.559 606.715 321.607 605.773 320.656C602.947 317.801 599.178 316.85 596.352 313.995C591.641 311.141 586.931 308.286 585.047 302.577C584.105 296.868 584.105 292.111 578.452 289.256C563.378 283.547 558.668 249.293 543.594 238.827C553.015 241.681 566.205 239.778 574.684 240.73Z" fill="#929292"/>
</svg>
