<svg width="819" height="474" viewBox="0 0 819 474" fill="none" xmlns="http://www.w3.org/2000/svg">
<g clip-path="url(#clip0_233_1470)">
<path fill-rule="evenodd" clip-rule="evenodd" d="M658.716 2.1644C665.955 5.41098 672.159 11.9041 678.364 11.9041C681.466 11.9041 684.568 10.8219 687.671 11.9041C693.875 12.9863 699.046 15.1507 703.182 18.3973C711.455 23.8082 718.693 30.3014 730.068 31.3836C733.17 31.3836 736.273 31.3836 738.341 31.3836C745.58 32.4658 746.614 42.2055 752.818 47.6165C759.023 54.1096 768.33 53.0274 778.671 56.274C783.841 57.3562 789.011 62.7671 793.148 62.7671C795.216 62.7671 796.25 61.6849 798.318 60.6028C811.761 58.4384 812.796 68.1781 815.898 81.1644C817.966 84.411 820.034 84.411 819 87.6576C819 95.2329 808.659 95.2329 807.625 99.5617C806.591 102.808 809.693 106.055 809.693 109.301C809.693 114.712 803.489 115.795 798.318 117.959C793.148 120.123 786.943 124.452 780.739 121.205C778.671 120.123 778.67 116.877 776.602 114.712C773.5 112.548 768.33 113.63 763.159 112.548C757.989 111.466 753.852 110.384 749.716 110.384C738.341 109.301 734.205 115.795 728 119.041C722.83 121.205 716.625 122.288 711.455 122.288C701.114 121.205 690.773 120.123 683.534 113.63C673.193 121.205 645.273 147.178 641.136 152.589C637 158 632.864 162.329 629.761 168.822C625.625 177.479 625.625 187.219 626.659 199.123C626.659 204.534 626.659 211.027 626.659 215.356C627.693 224.014 633.898 230.507 632.864 243.493C630.795 261.89 618.386 275.959 612.182 288.945C616.318 291.11 621.489 292.192 627.693 293.274C632.864 295.438 638.034 295.438 644.239 295.438C648.375 296.521 653.545 297.603 657.682 297.603C661.818 297.603 664.92 295.438 669.057 295.438C676.295 295.438 682.5 297.603 685.602 303.014C689.739 311.671 687.67 320.329 683.534 327.904C681.466 331.151 679.398 332.233 676.296 334.397C662.852 347.384 656.648 367.945 645.273 382.014C640.102 388.507 635.966 391.753 628.727 396.082C621.489 400.411 617.352 405.822 609.08 405.822C604.943 403.658 599.773 402.575 595.636 404.74C592.534 407.986 588.398 411.233 583.227 412.315C578.057 413.397 569.784 412.315 569.784 407.986C569.784 405.822 571.852 401.493 573.92 399.329C577.023 393.918 580.125 388.507 583.227 383.096C584.261 379.849 585.295 376.603 587.364 374.438C591.5 370.11 603.909 372.274 608.045 374.438C612.182 376.603 614.25 385.26 620.455 380.932C616.318 370.11 623.557 362.534 633.898 364.699C637 362.534 639.068 358.206 641.136 353.877C645.273 348.466 653.545 338.726 647.341 334.397C628.727 336.562 611.148 337.644 595.636 341.973C593.568 343.055 591.5 346.301 589.432 347.384C582.193 351.712 568.75 353.877 561.511 347.384C559.443 345.219 559.443 341.973 557.375 337.644C555.307 332.233 549.102 323.575 546 323.575C543.932 323.575 540.83 326.822 538.761 327.904C535.659 330.068 534.625 333.315 532.557 335.479C524.284 347.384 525.318 366.863 523.25 386.343C523.25 389.589 521.182 393.918 521.182 397.164C521.182 399.329 521.182 402.575 521.182 404.74C517.045 424.219 500.5 419.89 499.466 418.808C497.398 418.808 496.364 417.726 494.295 416.644C481.886 414.479 466.375 419.89 451.898 418.808C442.591 417.726 439.489 411.233 434.318 405.822C431.216 401.493 425.011 402.575 421.909 398.247C416.739 398.247 413.636 396.082 410.534 393.918C400.193 387.425 390.886 379.849 386.75 367.945C385.716 362.534 420.875 361.452 425.011 363.616C432.25 366.863 436.386 373.356 436.386 385.26C440.523 390.671 442.591 384.178 446.727 383.096C448.795 383.096 451.898 383.096 453.966 385.26C457.068 387.425 459.136 392.836 462.239 393.918C465.341 395 469.477 392.836 473.614 393.918C482.92 395 489.125 396.082 493.261 389.589C492.227 367.945 482.92 354.959 481.886 332.233C469.477 332.233 459.136 330.069 449.83 326.822C442.591 324.658 436.386 320.329 430.182 318.164C422.943 316 418.807 313.836 413.636 311.671C398.125 305.178 371.239 295.438 350.557 304.096C355.727 320.329 352.625 336.562 349.523 351.712C348.489 359.288 345.386 365.781 343.318 371.192C341.25 377.685 344.352 386.342 348.489 392.836C355.727 405.822 368.136 411.233 380.545 418.808C383.648 420.973 386.75 422.055 389.852 424.219C392.955 426.384 396.057 426.384 400.193 427.466C406.398 429.63 414.67 432.877 419.841 437.206C421.909 439.37 423.977 442.616 426.045 444.781C430.182 449.11 437.42 451.274 443.625 454.521C451.898 459.932 460.17 466.425 463.273 477.247C464.307 481.575 450.864 479.411 443.625 478.329C438.455 478.329 434.318 477.247 429.148 478.329C411.568 479.411 408.466 464.26 400.193 455.603C397.091 452.356 393.989 450.192 388.818 449.11C384.682 448.027 382.614 448.027 379.511 448.027C377.443 448.027 373.307 450.192 371.239 450.192C364 450.192 359.864 442.616 355.727 436.123C347.455 429.63 337.114 422.055 326.773 414.479C321.602 411.233 315.398 409.069 310.227 405.822C305.057 402.575 299.886 397.164 298.852 391.753C296.784 383.096 301.955 378.767 306.091 374.438C310.227 362.534 306.091 351.712 304.023 338.726C301.955 325.74 297.818 318.164 291.614 310.589C285.409 303.014 277.136 290.027 264.727 292.192C260.591 293.274 256.455 295.438 252.318 296.521C248.182 297.603 244.046 298.685 239.909 299.767C243.011 311.671 252.318 316 259.557 323.575C270.932 334.397 287.477 348.466 289.545 366.863C290.58 375.521 288.511 384.178 287.477 391.753C286.443 396.082 286.443 402.575 285.409 403.658C284.375 404.74 281.273 400.411 279.205 398.247C277.136 396.082 275.068 393.918 273 391.753C268.864 387.425 263.693 379.849 262.659 374.438C261.625 369.027 263.693 364.699 265.761 360.37C265.761 357.123 262.659 351.712 258.523 350.63C256.455 349.548 253.352 351.712 251.284 350.63C245.08 349.548 241.977 344.137 241.977 334.397C233.705 319.247 218.193 310.589 206.818 299.767C203.716 296.521 200.614 294.356 198.546 291.11C194.409 285.699 188.205 277.041 188.205 266.219C188.205 258.644 193.375 252.151 198.546 252.151C200.614 252.151 202.682 253.233 204.75 253.233C213.023 254.315 221.295 252.151 225.432 247.822C235.773 239.164 225.432 228.342 221.295 218.603C216.125 206.699 215.091 193.712 217.159 180.726C219.227 167.74 223.364 159.082 230.602 148.26C206.818 136.356 196.477 130.945 184.068 129.863C156.148 127.699 143.739 153.671 124.091 160.164C116.852 162.329 105.477 161.247 102.375 158C96.1705 158 88.9319 158 81.6932 156.918C73.4205 155.836 48.6023 152.589 46.5341 136.356C51.7046 139.603 56.875 141.767 64.1137 141.767C46.5341 129.863 25.8523 111.466 13.4432 93.0685C10.3409 86.5754 -6.20451 62.7671 2.06822 45.4521C3.56085e-05 62.7671 19.6478 80.0822 33.0909 88.7397C31.0228 83.3288 25.8523 73.5891 29.9887 64.9315C33.0909 82.2466 50.6705 95.2329 52.7387 96.3151C67.2159 106.055 87.8978 103.89 106.511 102.808C111.682 102.808 116.852 102.808 120.989 104.973C115.818 100.644 108.58 94.1507 108.58 84.411C108.58 80.0822 108.58 74.6713 111.682 70.3425C111.682 84.411 123.057 94.1507 134.432 99.5617C148.909 106.055 165.455 101.726 184.068 103.89C204.75 107.137 217.159 121.205 230.602 133.11C236.807 127.699 244.045 124.452 251.284 121.205C265.761 114.712 283.341 110.384 299.886 112.548C314.364 114.712 323.67 120.123 336.08 126.616C342.284 129.863 349.523 136.356 355.727 136.356C360.898 137.438 364 137.438 368.136 138.521C397.091 142.849 429.148 135.274 452.932 120.123C443.625 121.206 432.25 122.288 423.977 122.288C419.841 122.288 412.602 119.041 412.602 115.795C417.773 117.959 422.943 115.795 429.148 114.712C432.25 113.63 436.386 110.384 439.489 109.301C443.625 108.219 446.727 109.301 449.83 107.137C439.489 104.973 428.114 107.137 417.773 106.055C412.602 104.973 408.466 103.89 403.295 101.726C399.159 100.644 392.955 100.644 391.92 94.1507C396.057 97.3973 400.193 96.3151 404.33 96.3151C407.432 96.3151 411.568 95.2329 414.67 95.2329C416.739 95.2329 417.773 95.2329 418.807 95.2329C420.875 95.2329 422.943 94.1507 425.011 94.1507C433.284 91.9863 442.591 93.0685 451.898 89.8219C460.17 87.6576 469.477 83.3288 476.716 82.2466C486.023 81.1644 493.261 83.3288 501.534 80.0822C493.261 75.7534 481.886 79 473.614 76.8356C469.477 75.7534 466.375 73.5891 462.239 70.3425C459.136 68.1781 455 67.0959 453.966 66.0137C457.068 63.8493 476.716 68.1781 482.92 68.1781C491.193 68.1781 496.364 64.9315 502.568 63.8493C508.773 62.7671 516.011 63.8493 521.182 61.6849C510.841 59.5206 505.67 54.1096 500.5 45.4521C499.466 44.3699 496.364 35.7123 497.398 33.548C499.466 35.7123 508.773 44.3699 512.909 46.5343C519.114 49.7808 524.284 51.9452 531.523 51.9452C541.864 50.863 554.273 48.6986 562.545 45.4521C561.511 44.3699 558.409 43.2877 554.273 42.2055C550.136 40.0411 544.966 37.8767 544.966 33.548C549.102 34.6302 552.205 35.7123 554.273 35.7123C562.545 37.8767 572.886 34.6302 582.193 32.4658C588.398 31.3836 600.807 27.0548 605.977 27.0548C615.284 25.9726 622.523 23.8082 630.795 25.9726C627.693 21.6439 622.523 18.3973 622.523 11.9041C624.591 10.8219 625.625 11.9041 627.693 11.9041C633.898 12.9863 641.136 10.8219 647.341 11.9041C645.273 7.57536 641.136 4.32879 639.068 2.13699e-05C643.205 -1.08217 653.545 1.08221 658.716 2.1644Z" fill="#929292"/>
</g>
<defs>
<clipPath id="clip0_233_1470">
<rect width="819" height="474" fill="white"/>
</clipPath>
</defs>
</svg>
